<svg xmlns="http://www.w3.org/2000/svg" viewBox="0 0 512 512" role="img" aria-labelledby="title desc">
  <title id="title">Vishandel De Beer logo</title>
  <desc id="desc">Blauw app-icoon met wit beer- en visbeeldmerk.</desc>
  <defs>
    <linearGradient id="blue" x1="72" y1="32" x2="448" y2="480" gradientUnits="userSpaceOnUse">
      <stop offset="0" stop-color="#2F6BFF"/>
      <stop offset="1" stop-color="#2457E8"/>
    </linearGradient>
    <filter id="softShadow" x="-20%" y="-20%" width="140%" height="140%">
      <feDropShadow dx="0" dy="10" stdDeviation="12" flood-color="#05224A" flood-opacity=".18"/>
    </filter>
  </defs>

  <rect width="512" height="512" rx="74" fill="url(#blue)"/>

  <g fill="#fff" filter="url(#softShadow)">
    <!-- beer lichaam / ijsschots -->
    <path d="M83 173c0-19 15-34 34-34h67c7 0 13-4 16-10l19-40c5-11 21-11 26 0l18 39c3 7 10 11 17 11h67c18 0 31 17 28 35-8 49-54 86-109 86h-55c-17 0-31 14-31 31v33H83V173Z"/>

    <!-- snuit -->
    <path d="M334 169c28 0 51 22 51 50 0 25-20 45-45 45h-80c-18 0-32-14-32-32v-63h106Z"/>

    <!-- neus -->
    <path d="M371 205c7 0 13 6 13 13s-6 13-13 13h-17c-7 0-13-6-13-13s6-13 13-13h17Z"/>

    <!-- oor -->
    <path d="M211 104c0-16 13-29 29-29s29 13 29 29v38h-58v-38Z"/>

    <!-- oog -->
    <circle cx="259" cy="151" r="9" fill="#2F6BFF"/>

    <!-- vis rechts -->
    <path d="M395 278c31 0 56 38 56 85s-25 85-56 85-56-38-56-85 25-85 56-85Z"/>
    <path d="M435 336l33-30c7-6 18-1 18 8v98c0 9-11 14-18 8l-33-30v-54Z"/>
    <circle cx="401" cy="331" r="7" fill="#2F6BFF"/>

    <!-- golf onderzijde -->
    <path d="M83 328h39c14 0 20 15 32 15s18-15 32-15 20 15 32 15 18-15 32-15 20 15 32 15 18-15 32-15 20 15 32 15 18-15 32-15 20 15 32 15 18-15 32-15h26v80H83v-80Z"/>
  </g>
</svg>
