<svg width="220" height="220" viewBox="0 0 220 220" fill="none" xmlns="http://www.w3.org/2000/svg">
  <rect width="220" height="220" rx="48" fill="#15100b"/>
  <circle cx="164" cy="56" r="26" fill="#ffb703"/>
  <path d="M48 126h104c11.046 0 20 8.954 20 20v16H36v-24c0-6.627 5.373-12 12-12Z" fill="#ff6b35"/>
  <path d="M56 84h82c11.046 0 20 8.954 20 20v22H44v-30c0-6.627 5.373-12 12-12Z" fill="#fff4df"/>
  <path d="M77 84c4-19 20-31 41-31 24 0 40 16 40 39" stroke="#2ec4b6" stroke-width="12" stroke-linecap="round"/>
  <circle cx="70" cy="164" r="17" fill="#15100b" stroke="#fff4df" stroke-width="8"/>
  <circle cx="148" cy="164" r="17" fill="#15100b" stroke="#fff4df" stroke-width="8"/>
  <path d="M66 106h22M101 106h22M136 106h12" stroke="#15100b" stroke-width="8" stroke-linecap="round"/>
  <path d="M58 36h54" stroke="#fff4df" stroke-width="8" stroke-linecap="round"/>
  <path d="M58 54h30" stroke="#2ec4b6" stroke-width="8" stroke-linecap="round"/>
</svg>
