<svg width="512" height="512" viewBox="0 0 512 512" fill="none" xmlns="http://www.w3.org/2000/svg">
  <rect width="512" height="512" rx="112" fill="#062033"/>
  <circle cx="256" cy="256" r="184" fill="#0D3B4F"/>
  <path d="M96 266c49-71 117-106 204-106 49 0 92 13 129 39 15 11 15 34 0 45-37 26-80 39-129 39-87 0-155-35-204-106-4-5-4-6 0-11Z" fill="#EAF7F4"/>
  <path d="M375 222l50-45c17-16 45-4 45 19v52c0 23-28 35-45 19l-50-45Z" fill="#EF7B45"/>
  <circle cx="185" cy="221" r="13" fill="#062033"/>
  <path d="M230 209c39 23 77 24 116 0" stroke="#0D3B4F" stroke-width="18" stroke-linecap="round"/>
  <path d="M139 324h234" stroke="#EF7B45" stroke-width="22" stroke-linecap="round"/>
  <path d="M183 357h146" stroke="#EAF7F4" stroke-width="16" stroke-linecap="round" opacity=".9"/>
</svg>
